:SAMPLES-PER-SECOND 30
:FULLY-SPECIFIED
:DEGREES
137
root  5.103777713 40.52466745 0.5984466846 -12.20599365 -48.97999573 11.8380127
lowerback  9.398659706 1.303069949 -2.345129967
upperback  2.303070068 1.503250003 0.9218659997
thorax  -2.960829973 0.7481459975 2.097529888
lowerneck  -7.91821003 6.597119808 -1.31340003
upperneck  12.38459969 8.739520073 2.405869961
head  4.84744978 4.367099762 1.506459951
lclavicle  0 -9.442270133e-015 7.951389973e-016
lhumerus  -8.875220299 -20.46910095 84.21199799
lradius  2.820193333e-031 -2.12493614e-031 143.003006
lwrist  -1.059337512e-030 3.531125038e-031 2.100719929
lhand  -1.496451383e-031 -27.76390076 20.11240005
lfingers  90 7.125020027 -90
lthumb  89.89689403 5.08795885 91.16245106
rclavicle  0 -9.442270133e-015 7.951389973e-016
rhumerus  4.646679878 30.4416008 -78.1364975
rradius  -2.615376593e-031 2.372477463e-031 137.7879944
rwrist  0 -1.765562519e-031 -4.472780228
rhand  -7.920061211e-032 -33.2840004 9.303460121
rfingers  -90 -7.125020027 -90
rthumb  -92.93752616 -24.25625642 -97.11982154
rfemur  -15.47410011 15.4659996 8.75524044
rtibia  -0 0 51.6006012
rfoot  -4.705430992e-032 -20.27420044 -3.800839901
rtoes  5.373923086 19.29304026 -105.8922705
lfemur  -13.09920025 6.158740044 -21.16959953
ltibia  -0 0 50.82699966
lfoot  4.471759849e-032 -9.226409912 4.32859993
ltoes  -4.250644065 -19.5611806 -102.515957
138
root  5.195666486 40.51022267 0.572204449 -12.3170166 -48.89500427 12.00799561
lowerback  9.938019753 1.319579959 -2.286859989
upperback  2.45449996 1.511980057 0.837816
thorax  -3.098560095 0.7499529719 1.968410015
lowerneck  -7.770599842 6.525229931 -1.46291995
upperneck  11.8423996 8.663920403 2.393520117
head  4.65102005 4.327579975 1.500859976
lclavicle  0 -9.442270133e-015 7.951389973e-016
lhumerus  -9.509119987 -20.12719917 84.83480072
lradius  2.821713197e-031 -2.12291749e-031 143.0440063
lwrist  -3.531125038e-031 -3.531125038e-031 2.165489912
lhand  -1.496451383e-031 -27.76390076 20.11240005
lfingers  90 7.125020027 -90
lthumb  89.89689403 5.08795885 91.16245106
rclavicle  0 -9.442270133e-015 7.951389973e-016
rhumerus  3.718580008 30.5163002 -78.38809967
rradius  -2.61512827e-031 2.372751182e-031 137.7819977
rwrist  1.765562519e-030 -1.765562519e-031 -3.947370052
rhand  -7.920061211e-032 -33.2840004 9.303460121
rfingers  -90 -7.125020027 -90
rthumb  -92.93752616 -24.25625642 -97.11982154
rfemur  -16.03709984 15.05090046 8.097399712
rtibia  -0 0 52.07920074
rfoot  -4.685069533e-032 -19.5890007 -2.087510109
rtoes  5.373923086 19.29304026 -105.8922705
lfemur  -14.39120007 7.012229919 -21.09900093
ltibia  -0 0 52.44070053
lfoot  8.907736584e-032 -7.681000233 3.36097002
ltoes  -4.250644065 -19.5611806 -102.515957
139
root  5.297844429 40.4931106 0.5483533454 -12.21502686 -48.84500122 12.04302979
lowerback  10.2560997 1.334789991 -2.073489904
upperback  2.737400055 1.539649963 0.7672119737
thorax  -2.974280119 0.7556899786 1.768779993
lowerneck  -7.893690109 6.485089779 -1.561120033
upperneck  11.2809 8.636500359 2.31753993
head  4.498690128 4.310989857 1.481340051
lclavicle  0 -9.442270133e-015 7.951389973e-016
lhumerus  -9.69054985 -19.72430038 85.20839691
lradius  2.823786746e-031 -2.12015859e-031 143.1000061
lwrist  -1.059337512e-030 -3.531125038e-031 2.536000013
lhand  -1.496451383e-031 -27.76390076 20.11240005
lfingers  90 7.125020027 -90
lthumb  89.89689403 5.08795885 91.16245106
rclavicle  0 -9.442270133e-015 7.951389973e-016
rhumerus  3.057770014 30.60029984 -78.51830292
rradius  -2.613595363e-031 2.37443958e-031 137.7449951
rwrist  7.062250077e-031 -0 -3.326719999
rhand  -7.920061211e-032 -33.2840004 9.303460121
rfingers  -90 -7.125020027 -90
rthumb  -92.93752616 -24.25625642 -97.11982154
rfemur  -16.79070091 14.64050007 7.419400215
rtibia  -0 0 52.57030106
rfoot  -4.948380481e-032 -18.60519981 -0.247646004
rtoes  5.373923086 19.29304026 -105.8922705
lfemur  -16.04789925 7.845149994 -20.89870071
ltibia  -0 0 54.26250076
lfoot  6.651746605e-032 -5.523660183 2.35965991
ltoes  -4.250644065 -19.5611806 -102.515957
140
root  5.40682237 40.51844379 0.5285355519 -11.71398926 -48.91999817 11.71502686
lowerback  10.4715004 1.311720014 -1.532209992
upperback  3.006880045 1.554720044 0.7312350273
thorax  -2.798830032 0.7548810244 1.423869967
lowerneck  -8.22385025 6.474830151 -1.492159963
upperneck  10.97459984 8.641550064 2.140429974
head  4.470699787 4.308919907 1.422420025
lclavicle  0 -9.442270133e-015 7.951389973e-016
lhumerus  -9.715880394 -19.25149918 85.32050323
lradius  2.827150087e-031 -2.115671624e-031 143.1909943
lwrist  -1.059337512e-030 -1.765562519e-031 3.191580057
lhand  -1.496451383e-031 -27.76390076 20.11240005
lfingers  90 7.125020027 -90
lthumb  89.89689403 5.08795885 91.16245106
rclavicle  0 -9.442270133e-015 7.951389973e-016
rhumerus  2.508249998 30.7845993 -78.75409698
rradius  -2.606497603e-031 2.382228847e-031 137.5740051
rwrist  3.531125038e-031 -0 -2.757829905
rhand  -7.920061211e-032 -33.2840004 9.303460121
rfingers  -90 -7.125020027 -90
rthumb  -92.93752616 -24.25625642 -97.11982154
rfemur  -17.64419937 14.27460003 6.939229965
rtibia  -0 0 52.90090179
rfoot  -5.779673237e-032 -17.32740021 1.583469987
rtoes  5.373923086 19.29304026 -105.8922705
lfemur  -17.9435997 8.656609535 -20.40589905
ltibia  -0 0 56.11750031
lfoot  4.419248227e-032 -2.817450047 1.404299974
ltoes  -4.250644065 -19.5611806 -102.515957
141
root  5.522622086 40.57111064 0.5126644307 -11.00299072 -49.06500244 11.16802979
lowerback  10.79339981 1.307770014 -0.932321012
upperback  3.159590006 1.606430054 0.7965769768
thorax  -2.804820061 0.7760509849 1.142879963
lowerneck  -8.356220245 6.475989819 -1.311509967
upperneck  10.65100002 8.65598011 1.855849981
head  4.414309978 4.30919981 1.306529999
lclavicle  0 -9.442270133e-015 7.951389973e-016
lhumerus  -9.83880043 -18.87210083 85.41200256
lradius  2.83367246e-031 -2.106927722e-031 143.3679962
lwrist  -3.531125038e-031 -1.765562519e-031 3.878449917
lhand  -1.496451383e-031 -27.76390076 20.11240005
lfingers  90 7.125020027 -90
lthumb  89.89689403 5.08795885 91.16245106
rclavicle  0 -9.442270133e-015 7.951389973e-016
rhumerus  1.854629993 30.85689926 -78.94290161
rradius  -2.604750328e-031 2.384139208e-031 137.5319977
rwrist  1.412450015e-030 -3.531125038e-031 -2.796129942
rhand  -7.920061211e-032 -33.2840004 9.303460121
rfingers  -90 -7.125020027 -90
rthumb  -92.93752616 -24.25625642 -97.11982154
rfemur  -18.51370049 13.89869976 6.590710163
rtibia  -0 0 53.0685997
rfoot  -9.177334262e-032 -15.86369991 3.612900019
rtoes  5.373923086 19.29304026 -105.8922705
lfemur  -19.94549942 9.263429642 -19.72900009
ltibia  -0 0 57.90319824
lfoot  4.96567251e-032 0.1921509951 0.5650410056
ltoes  -4.250644065 -19.5611806 -102.515957
142
root  5.643155631 40.62311067 0.5086399908 -10 -49.31100464 10.10900879
lowerback  11.30410004 1.30242002 -0.1388200074
upperback  3.243299961 1.689610004 1.09386003
thorax  -2.986439943 0.8127679825 0.9844210148
lowerneck  -8.308039665 6.513410091 -1.257390022
upperneck  9.940770149 8.73884964 1.535969973
head  4.669010162 4.328959942 1.316599965
lclavicle  0 -9.442270133e-015 7.951389973e-016
lhumerus  -9.956830025 -18.53179932 85.54460144
lradius  2.840680661e-031 -2.097469289e-031 143.5590057
lwrist  -7.062250077e-031 -1.765562519e-031 4.528600216
lhand  -1.496451383e-031 -27.76390076 20.11240005
lfingers  90 7.125020027 -90
lthumb  89.89689403 5.08795885 91.16245106
rclavicle  0 -9.442270133e-015 7.951389973e-016
rhumerus  1.110399961 30.89780045 -78.83350372
rradius  -2.611232237e-031 2.377038124e-031 137.6880035
rwrist  1.412450015e-030 -0 -3.052560091
rhand  -7.920061211e-032 -33.2840004 9.303460121
rfingers  -90 -7.125020027 -90
rthumb  -92.93752616 -24.25625642 -97.11982154
rfemur  -19.1928997 13.65639973 6.636710167
rtibia  -0 0 53.04240036
rfoot  -4.554116464e-032 -14.25430012 5.776659966
rtoes  5.373923086 19.29304026 -105.8922705
lfemur  -21.81170082 9.701510429 -18.62960052
ltibia  -0 0 59.50109863
lfoot  4.69764582e-032 3.317080021 -0.360567987
ltoes  -4.250644065 -19.5611806 -102.515957
143
root  5.768244285 40.66044364 0.5120955584 -9.088989258 -49.64599609 9.044006348
lowerback  11.87419987 1.307500005 0.7002030015
upperback  3.327310085 1.801169991 1.392259955
thorax  -3.196749926 0.8617380261 0.7958729863
lowerneck  -8.095870018 6.601240158 -1.229179978
upperneck  9.682740211 8.863670349 1.408489943
head  4.536819935 4.387979984 1.257509947
lclavicle  0 -9.442270133e-015 7.951389973e-016
lhumerus  -10.01039982 -18.37330055 85.5983963
lradius  2.846344415e-031 -2.089776904e-031 143.7140045
lwrist  -1.059337512e-030 -1.765562519e-031 4.708380222
lhand  -1.496451383e-031 -27.76390076 20.11240005
lfingers  90 7.125020027 -90
lthumb  89.89689403 5.08795885 91.16245106
rclavicle  0 -9.442270133e-015 7.951389973e-016
rhumerus  0.6861410141 30.82220078 -78.7039032
rradius  -2.606954976e-031 2.38172832e-031 137.5850067
rwrist  3.531125038e-031 -1.765562519e-031 -3.434289932
rhand  -7.920061211e-032 -33.2840004 9.303460121
rfingers  -90 -7.125020027 -90
rthumb  -92.93752616 -24.25625642 -97.11982154
rfemur  -19.72179985 13.67529964 6.671470165
rtibia  -0 0 52.91439819
rfoot  -0 -12.4368 7.988639832
rtoes  5.373923086 19.29304026 -105.8922705
lfemur  -23.42709923 10.03859997 -17.50239944
ltibia  -0 0 60.83800125
lfoot  5.54882482e-032 6.102350235 -1.598989964
ltoes  -4.250644065 -19.5611806 -102.515957
